<?xml version="1.0" encoding="UTF-8"?>
<svg id="_x32_" xmlns="http://www.w3.org/2000/svg" version="1.1" viewBox="0 0 800 800">
  <!-- Generator: Adobe Illustrator 29.5.1, SVG Export Plug-In . SVG Version: 2.1.0 Build 141)  -->
  <defs>
    <style>
      .st0 {
        fill: #fff;
      }
    </style>
  </defs>
  <path class="st0" d="M158.2,330.4l71.9-72c9.8-35,1-74.2-26.6-101.8-43.8-43.8-101-50.7-151.3-84.2-18.1-12.1-23.6-18.9-23.6-18.9-44.6,62.5-38.3,184.2,27.8,250.3,27.6,27.6,66.7,36.4,101.8,26.6Z"/>
  <path class="st0" d="M198.5,325.3c-8.3,8.3-11.4,28.1-5.1,51,5.8,21.4,23.8,47.2,49.4,75,16.6-18.6,32.5-35.9,46.8-50.9,20.9-23.9,40.2-44.2,58-60.8-26.5-23.9-51-40.6-71.5-46.2-23-6.3-42.8-3.2-51,5.1l-26.7,26.7Z"/>
  <path class="st0" d="M483.3,485c-15.7,16.5-34.4,34.1-56.1,53.1-13.6,13-29.2,27.4-45.8,42.3,80.5,70.4,174,145.9,196.5,163.8,33.4,27.1,64.9,35.3,83.2,17,18.3-18.2,10.1-49.8-17-83.2-17.6-22.2-91.2-113.3-160.7-193Z"/>
  <path class="st0" d="M520.7,387.8l-80.8-80.8c-35.4,9.7-83.2,53.5-132.3,109.9-77.9,80.9-203,235.5-226.4,265.1-26.5,32.6-34.4,63.3-16.6,81.1,17.8,17.8,48.5,9.9,81.1-16.6,29.5-23.4,184.1-148.5,265.1-226.4,56.4-49.1,100.3-96.9,109.9-132.4Z"/>
  <polygon class="st0" points="580 330.3 497 247.3 455.4 288.8 538.5 371.9 580 330.3"/>
  <path class="st0" d="M793,150.5l-116.2-116.1c-9.4-9.4-24.6-9.4-33.9,0l-64.3,64.2,150.1,150.1,64.3-64.3c9.4-9.4,9.4-24.6,0-34Z"/>
  <path class="st0" d="M546.5,130.7c-50.3,50.3-9.6,76.7-33.5,100.6l83,83c24-24,50.3,16.8,100.6-33.5l15.2-15.2-150.1-150.1-15.2,15.2Z"/>
</svg>