<?xml version="1.0" encoding="UTF-8"?>
<svg id="Layer_1" xmlns="http://www.w3.org/2000/svg" version="1.1" viewBox="0 0 800 800">
  <!-- Generator: Adobe Illustrator 29.5.1, SVG Export Plug-In . SVG Version: 2.1.0 Build 141)  -->
  <defs>
    <style>
      .st0 {
        fill: none;
        stroke: #fff;
        stroke-linecap: round;
        stroke-linejoin: round;
        stroke-width: 66.7px;
      }
    </style>
  </defs>
  <path class="st0" d="M266.7,166.7c-32.9,0-50.2.4-63.6,7.3-12.5,6.4-22.7,16.6-29.1,29.1-7.3,14.3-7.3,32.9-7.3,70.3v320c0,37.3,0,56,7.3,70.3,6.4,12.5,16.6,22.7,29.1,29.1,14.3,7.3,32.9,7.3,70.3,7.3h253.3c37.3,0,56,0,70.3-7.3,12.5-6.4,22.7-16.6,29.1-29.1,7.3-14.3,7.3-32.9,7.3-70.3v-320c0-37.3,0-56-7.3-70.3-6.4-12.5-16.6-22.7-29.1-29.1-13.4-6.8-30.7-7.2-63.6-7.3M266.7,166.7v66.7h266.7v-66.7M266.7,166.7v-9.8c0-15.1,6-29.6,16.7-40.2s25.1-16.7,40.2-16.7h152.9c15.1,0,29.6,6,40.2,16.7s16.7,25.1,16.7,40.2v9.8M400,366.7h-100M500,500h-200"/>
</svg>