<?xml version="1.0" encoding="UTF-8"?>
<svg id="Layer_1" xmlns="http://www.w3.org/2000/svg" version="1.1" viewBox="0 0 800 800">
  <!-- Generator: Adobe Illustrator 29.5.1, SVG Export Plug-In . SVG Version: 2.1.0 Build 141)  -->
  <defs>
    <style>
      .st0, .st1 {
        fill: none;
        stroke: #fff;
        stroke-miterlimit: 133.3;
        stroke-width: 50px;
      }

      .st1 {
        stroke-linecap: round;
      }
    </style>
  </defs>
  <circle class="st0" cx="616.7" cy="150" r="83.3"/>
  <path class="st1" d="M480,733.3v-26.8c0-2.6,0-3.9,0-5.1-.8-71.3-34.1-138.4-90.5-182-1-.8-2-1.5-4.1-3.1-1.3-1-2-1.5-2.5-1.9-31.9-25.2-34-72.8-4.5-100.7.5-.5,1.1-1,2.3-2.1l34.7-31.5c54.2-49.3,37.7-138.4-30.6-165-24.5-9.5-51.7-8.9-75.7,1.7l-17.4,7.7M181.3,287l-48,34.2"/>
  <path class="st1" d="M300,566.7l-8.6,10.4c-47.3,56.8-117.4,89.6-191.4,89.6"/>
  <path class="st1" d="M533.3,400c43.8,10.9,89.6,10.9,133.3,0"/>
</svg>