<?xml version="1.0" encoding="UTF-8"?>
<svg id="Layer_1" xmlns="http://www.w3.org/2000/svg" version="1.1" viewBox="0 0 800 800">
  <!-- Generator: Adobe Illustrator 29.5.1, SVG Export Plug-In . SVG Version: 2.1.0 Build 141)  -->
  <defs>
    <style>
      .st0 {
        fill: #fff;
        fill-rule: evenodd;
      }
    </style>
  </defs>
  <path class="st0" d="M100,205.1v438.6c33.1-14.9,80.1-30.3,133.3-30.3s100,15.3,133.3,30.3V205.1c-7.2-4.2-17-9.4-28.8-14.6-27.5-12.2-64.4-23.8-104.6-23.8-57.9,0-108.7,24.2-133.3,38.4ZM433.3,205.1v440.2c33.3-14.1,80.3-28.6,133.3-28.6s100.3,14.6,133.3,28.6V205.1c-24.7-14.2-75.5-38.4-133.3-38.4s-77,11.6-104.6,23.8c-11.8,5.2-21.5,10.4-28.8,14.6ZM400,147.3c-9-5.2-20.9-11.5-35.1-17.8-32.7-14.5-79.1-29.5-131.6-29.5-76.9,0-141.3,32.4-169.2,48.8-20.5,12.1-30.8,33.8-30.8,54.9v463.7c0,20.8,12.3,36.6,26.5,44.5,14,7.8,33,9.9,50.2.9,27.4-14.4,72.7-32.9,123.3-32.9s118.4,29.1,139.5,42.1c16.4,10.1,37.1,10.4,53.7.8,21.2-12.2,76.2-39.5,140.1-39.5s97.2,17.7,124.6,31.2c31.7,15.7,75.4-5.2,75.4-45.9V203.7c0-21.2-10.3-42.8-30.8-54.9-28-16.5-92.3-48.8-169.2-48.8s-98.9,15-131.6,29.5c-14.2,6.3-26.1,12.6-35.1,17.8Z"/>
</svg>