<?xml version="1.0" encoding="UTF-8"?>
<svg id="Layer_1" xmlns="http://www.w3.org/2000/svg" version="1.1" viewBox="0 0 800 800">
  <!-- Generator: Adobe Illustrator 29.5.1, SVG Export Plug-In . SVG Version: 2.1.0 Build 141)  -->
  <defs>
    <style>
      .st0 {
        fill: none;
        stroke: #fff;
        stroke-linecap: round;
        stroke-linejoin: round;
        stroke-width: 66.7px;
      }
    </style>
  </defs>
  <path class="st0" d="M533.3,233.3v-26.7c0-37.3,0-56-7.3-70.3-6.4-12.5-16.6-22.7-29.1-29.1-14.3-7.3-32.9-7.3-70.3-7.3h-53.3c-37.3,0-56,0-70.3,7.3-12.5,6.4-22.7,16.6-29.1,29.1-7.3,14.3-7.3,32.9-7.3,70.3v26.7M100.9,334.2c12,11.5,142,132.5,299.1,132.5s287.1-120.9,299.1-132.5M100.9,334.2c-.9,15.6-.9,34.7-.9,59.1v146.7c0,56,0,84,10.9,105.4,9.6,18.8,24.9,34.1,43.7,43.7,21.4,10.9,49.4,10.9,105.4,10.9h280c56,0,84,0,105.4-10.9,18.8-9.6,34.1-24.9,43.7-43.7,10.9-21.4,10.9-49.4,10.9-105.4v-146.7c0-24.5,0-43.6-.9-59.1M100.9,334.2c1.2-20.1,3.9-34.2,10-46.3,9.6-18.8,24.9-34.1,43.7-43.7,21.4-10.9,49.4-10.9,105.4-10.9h280c56,0,84,0,105.4,10.9,18.8,9.6,34.1,24.9,43.7,43.7,6.1,12.1,8.8,26.2,10,46.3"/>
</svg>