<?xml version="1.0" encoding="UTF-8"?>
<svg id="Layer_1" xmlns="http://www.w3.org/2000/svg" version="1.1" viewBox="0 0 800 800">
  <!-- Generator: Adobe Illustrator 29.5.1, SVG Export Plug-In . SVG Version: 2.1.0 Build 141)  -->
  <defs>
    <style>
      .st0 {
        fill: #fff;
      }
    </style>
  </defs>
  <path class="st0" d="M576,185.6c0-27.4-22.2-49.6-49.6-49.6h-244.8c-27.4,0-49.6,22.2-49.6,49.6v444.8c0,27.4,22.2,49.6,49.6,49.6h244.8c27.4,0,49.6-22.2,49.6-49.6V185.6ZM544,630.4c0,9.7-7.9,17.6-17.6,17.6h-244.8c-9.7,0-17.6-7.9-17.6-17.6V185.6c0-9.7,7.9-17.6,17.6-17.6h244.8c9.7,0,17.6,7.9,17.6,17.6v444.8Z"/>
  <path class="st0" d="M520,208c0-8.8-7.2-16-16-16h-200c-8.8,0-16,7.2-16,16v336c0,8.8,7.2,16,16,16h200c8.8,0,16-7.2,16-16V208ZM320,224h168v304h-168V224Z"/>
  <circle class="st0" cx="402.7" cy="600" r="27.6"/>
</svg>