<?xml version="1.0" encoding="UTF-8"?>
<svg id="Layer_1" xmlns="http://www.w3.org/2000/svg" version="1.1" viewBox="0 0 800 800">
  <!-- Generator: Adobe Illustrator 29.5.1, SVG Export Plug-In . SVG Version: 2.1.0 Build 141)  -->
  <defs>
    <style>
      .st0 {
        stroke-linecap: round;
        stroke-miterlimit: 133.3;
        stroke-width: 66.7px;
      }

      .st0, .st1 {
        fill: none;
        stroke: #fff;
      }

      .st1 {
        stroke-miterlimit: 10;
      }
    </style>
  </defs>
  <g id="Page-1">
    <g id="Party">
      <rect id="Rectangle" class="st1" y="0" width="800" height="800"/>
      <path id="Path" class="st0" d="M135,665c23.6,23.6,47.1,23.6,82.5,11.8l348.3-179.4c20.1-10.3,24.3-37.2,8.3-53.2l-218.3-218.3c-16-16-42.9-11.8-53.2,8.3l-179.4,348.3c-11.8,35.4-11.8,58.9,11.8,82.5Z"/>
      <path id="Path1" data-name="Path" class="st0" d="M600,200l45.6-22.8c10.4-5.2,12.6-19,4.4-27.2h0c-8.2-8.2-6-22,4.4-27.2l45.6-22.8"/>
      <line id="Path2" data-name="Path" class="st0" x1="533.3" y1="266.7" x2="537.5" y2="266.7"/>
      <line id="Path3" data-name="Path" class="st0" x1="645.8" y1="383.3" x2="650" y2="383.3"/>
      <line id="Path4" data-name="Path" class="st0" x1="400" y1="133.3" x2="366.7" y2="83.3"/>
      <line id="Path5" data-name="Path" class="st0" x1="516.7" y1="150" x2="533.3" y2="66.7"/>
      <line id="Path6" data-name="Path" class="st0" x1="733.3" y1="300" x2="650" y2="283.3"/>
      <line id="Path7" data-name="Path" class="st0" x1="400" y1="283.3" x2="400" y2="583.3"/>
      <line id="Path8" data-name="Path" class="st0" x1="266.7" y1="316.7" x2="266.7" y2="650"/>
    </g>
  </g>
</svg>