<?xml version="1.0" encoding="UTF-8"?>
<svg id="Layer_1" xmlns="http://www.w3.org/2000/svg" xmlns:xlink="http://www.w3.org/1999/xlink" version="1.1" viewBox="0 0 1604.5 1683.7">
  <!-- Generator: Adobe Illustrator 29.3.1, SVG Export Plug-In . SVG Version: 2.1.0 Build 151)  -->
  <defs>
    <style>
      .st0 {
        stroke: url(#linear-gradient);
        stroke-miterlimit: 10;
      }
    </style>
    <linearGradient id="linear-gradient" x1="332.8" y1="833.5" x2="1377.2" y2="833.5" gradientUnits="userSpaceOnUse">
      <stop offset="0" stop-color="#fff"/>
      <stop offset="1" stop-color="#272525"/>
    </linearGradient>
  </defs>
  <path class="st0" d="M337,1423.9c-17.7-109.4,28.4-211.8,127.1-252.2l12.6-3.8c2.5,0,4.4-1.3,5.7-1.3s1.9,1.3,4.4,0c3.8-1.3,8.2-1.3,15.8,0,46.8,5.7,84.7,26.5,129.6,21.5,417.2-51.2,386.2-729.5-34.1-729.5s-7.6.6-11.4,1.9c-141.6,45.5-226.9-138.4-210.5-262.3-1.3-95.5,208-113.2,278.8-116.9,411.5-12,757.9,387.5,718.7,807.9-19,480.4-532.9,838.2-965.9,642.2-44.9-17.1-63.8-60.7-70.8-107.5M1103.1,305c-115.7-110.6-254.7-164.4-409.6-175.1-93.6-7-183.3,16.4-270.5,48.7-8.8,3.2-15.2,8.8-17.7,18.3-4.4,18.3-7.6,37.3-3.8,55.6,11.4,53.7,31.6,103,63.8,147.3,15.2,20.9,34.8,36,62.6,25.3,65.1-24.7,130.2-12.6,191.5,10.7,201.6,75.2,298.4,305.9,237,516.4-26.5,91.7-78.4,166.2-156.8,218.1-91.7,60.1-189,86-295.8,47.4-26.5-9.5-70.2,4.4-87.9,27.2-41.1,51.8-51.2,113.8-51.2,178.3s10.7,47.4,37.9,60.1c32.2,15.2,67,20.2,100.5,29.7,95.5,26.5,192.8,32.9,289.5,10.7,168.1-38.6,304.7-128.3,406.5-273.7,79-112.5,118.2-239.6,127.7-376.7,7-98-7.6-194.1-41.1-286.4-39.2-108.1-98-202.3-183.3-281.3l.6-.6Z"/>
</svg>